<svg width="226" height="30" viewBox="0 0 226 30" fill="none" xmlns="http://www.w3.org/2000/svg">
<line y1="-0.8" x2="40.0594" y2="-0.8" transform="matrix(-0.720572 0.69338 -0.720572 -0.69338 56.4707 0.839844)" stroke="#161116" stroke-width="1.6"/>
<line y1="-0.8" x2="38.7241" y2="-0.8" transform="matrix(0.72057 0.693382 -0.72057 0.693382 0 2.14941)" stroke="#161116" stroke-width="1.6"/>
<line y1="-0.8" x2="40.0594" y2="-0.8" transform="matrix(0.720573 0.693379 0.720573 -0.693379 112.941 0.839844)" stroke="#161116" stroke-width="1.6"/>
<line y1="-0.8" x2="38.7241" y2="-0.8" transform="matrix(-0.72057 0.693383 0.72057 0.693383 169.412 2.14941)" stroke="#161116" stroke-width="1.6"/>
<line y1="-0.8" x2="40.0593" y2="-0.8" transform="matrix(-0.720571 -0.693381 -0.720571 0.693381 84.7059 29)" stroke="#161116" stroke-width="1.6"/>
<line y1="-0.8" x2="40.0594" y2="-0.8" transform="matrix(-0.720573 0.693379 -0.720573 -0.693379 224 0.839844)" stroke="#161116" stroke-width="1.6"/>
<line y1="-0.8" x2="38.7241" y2="-0.8" transform="matrix(0.72057 0.693383 -0.72057 0.693383 167.529 2.14941)" stroke="#161116" stroke-width="1.6"/>
<line y1="-0.8" x2="40.0593" y2="-0.8" transform="matrix(0.720571 -0.693381 0.720571 0.693381 84.7059 29)" stroke="#161116" stroke-width="1.6"/>
</svg>
